<?xml version="1.0" encoding="UTF-8"?>
<svg id="Layer_1" data-name="Layer 1" xmlns="http://www.w3.org/2000/svg" viewBox="0 0 1279.36 276.59">
  <defs>
    <style>
      .cls-1 {
        fill: #fff;
      }
    </style>
  </defs>
  <path class="cls-1" d="M900.97,122.44l57.45.28c5.05,3.26-3.76,12.54-5.88,16.07-26.16,43.53,7.42,65.04,47.7,70.09,40.52,5.08,83.61-1.78,121.8-15.4,10.74-25.27,35.94-66.78,64.81-72.79,28.71-5.98,35.17,15.42,19.91,36.41-15.61,21.47-44.83,37.81-68.89,48.08-2.16.92-12.44,4.05-12.89,5.6-.24.83-.54,5.11-.61,6.39-1.71,29.76,16.6,42.72,44.63,33.14,20.72-7.08,37.2-22.58,46.43-42.3.78-.49,3.81.36,3.87,1.16-3.69,7.25-7.15,14.6-11.43,21.52-10.99,17.76-26.65,34.49-47.5,39.99-14.26,3.76-29.47,3.76-39.47-8.51-11.22-13.77-8.74-33.05-5.51-49.24-20.55,6.66-42.11,11.28-63.73,13-31.38,2.49-80.59,2.84-102.69-23.26-16.75-19.78-13.02-44.94-7.01-68.23-6.91-.13-13.85.15-20.76.02-8.42-.16-20.33-1.63-28.5-.55-.55.07-1.07.08-1.5.5l-38.1,47.38-1.37,6.13c10.29,11.48,22.68,21.77,31.95,34.07,7.51,9.95,12.15,19.79,8.66,32.56-3.4,12.4-15.68,19.01-28.09,18.38-35.76-1.8-27.08-55.61-21.25-78.49l-23.47,25.26c-16.48,15.52-33.42,33.19-53.66,43.82-14.52,7.62-51.65,20.04-48.81-8.83.54-5.47,3.56-10.26,5.49-15.25-10.78,11.47-23.42,23.4-38.14,29.59-29.61,12.43-43.9-6.37-30.75-34.27,12.47-26.46,35.98-50.97,51.42-76.06,4.15-6.74,13.24-20.76,3.34-26.37-5.61-3.18-18.3.1-24.45,1.75-19.53,5.21-41.15,15.87-59.71,24.27-86.35,39.1-168.24,82.04-260.96,105.95-25.06,6.46-84.96,23.1-80.45-21.48l3.62-12.38c-8.48,10.94-18.11,21.46-29.28,29.7-9.93,7.33-23.85,15.48-36.55,11.65-12.61-3.81-9.29-25.22-6.89-34.86-8.61,6.87-16.78,14.5-25.83,20.91-11.49,8.14-25.25,15.93-39.89,15.09-1.57-.09-5.95-1.39-6.8-1.24-1.06.18-4.21,2.09-5.85,2.6-9.78,3.09-20.69,4.04-28.61-3.59-4.28-4.12-7.81-11.79-6.25-17.78.83-3.2,6.61-7.06,9.89-6.4,1.26.25,7.79,6.51,9.7,7.83,15.11,10.47,28.85,8.89,39.56-6.26,12.22-17.29,10.74-39.32,8.53-59.35-1.31-11.8-3.77-23.49-4.94-35.31-24.84,29.36-49.19,59.55-77.46,85.76-16.66,15.44-49.06,41.32-73.11,31.62-6.49-2.62-11.07-9.37-12.32-16.18-.48-2.6-.63-10.16.55-12.35.67-1.24,1.8-.94,3.07-.77l.8,1.12c-3.45,12.7,3.21,20.31,16.21,19.24,22.53-1.86,59.62-40.75,75.3-57.17,21.61-22.63,41.59-46.85,61.72-70.78-2.05-12.25-2.45-30.17,8.24-38.73,8.55-6.85,21.99-3.15,23.77,8.23,2.7,17.23-11.21,28.76-20.19,41.39,3.8,32.87,20.26,71.26-.37,101.59-3.09,4.55-7.16,8.36-11.2,12.04.84.13,1.6-.14,2.4-.35,20.35-5.25,55.64-38.85,69.06-55.41,5.62-6.93,10.3-15.42,15.81-22.68,15.19-20.03,52.83-60.79,79.5-60.36,6.33.1,10.96,3.49,10.17,10.31l4.24-7.5c.25-.35.61-.42,1-.49,2.22-.43,16.34,2.42,16.74,4.28l-57.23,91.21c-7.14,14.05-16.23,35.38,6.24,39.78,14.89,2.91,33.14-2.3,47.5-6.52,91.13-26.75,174.87-68.16,261.92-104.48,23.18-9.67,54.89-24.22,79.71-26.26,39.16-3.21,27.32,26.06,13.65,47.15-11.95,18.44-26.65,35.31-38.8,53.69-6.13,9.28-13.86,20.9-14.11,32.39-.18,8.13,5.48,11.75,13.23,10.72,11.96-1.59,31.96-24.42,39.77-33.72,27.96-33.31,50.42-71.45,74.24-107.74.25-.35.6-.43.99-.5,2.47-.47,16.52,1.91,17.53,3.99l-.88,2.17c-20.19,32.5-42.73,63.69-62.58,96.39-4.41,7.26-13.33,21.76-12.3,30.22.49,4.04,4.66,5.33,8.24,5.25,18.38-.42,39.14-17.91,52.26-29.75,17.17-15.5,32.26-33.15,47.76-50.27.45-.89-3.21-5.26-3.99-6.53-6.51-10.66-11.21-22.67-4.7-34.61,8.11-14.87,28.62-17.01,43.82-16.41,11.51-26.78,24.13-53.68,38.97-78.77C916.06,30.63,934.29-.07,951.15,0c24.74.11,5.65,37.97-.11,48.78-13.89,26.09-32.57,49.96-50.07,73.66ZM953.31,7.59c-3.09-3.09-9.42-.04-12.31,2.15-10.59,8.04-21.45,27.17-28.12,38.87-13.59,23.83-25.39,48.72-36.4,73.83l4.74-.5c16.63-21.72,33.89-43.03,49.35-65.63,5.97-8.73,25.09-36.45,23.85-46.07-.08-.6-.72-2.25-1.11-2.65ZM171.62,97.05c-3.42.66-6.77,6.78-7.63,9.89-1.27,4.61-1.43,12.14-.25,16.77.17.65-.04,1.27.76,1.73,4.85-5.48,14.43-17.06,13.22-24.71-.45-2.83-3.45-4.18-6.1-3.67ZM1130.89,189.44c8.84-3.3,17.44-7.43,25.64-12.1,12.34-7.02,35.29-22.54,40.58-35.91,4.99-12.6-3.65-16.52-14.71-13.22-12.78,3.81-27.82,20.89-35.42,31.57-6.54,9.2-11.81,19.21-16.09,29.65ZM864.49,133.95h-14.74c-5.1,0-12.66,3.58-15.95,7.54-7.35,8.86-3.92,17.8,1.5,26.42.72,1.15,3.29,5.56,4.45,5.55l17.67-21.83,7.08-17.67ZM226.38,225.1c-3.6,6.54-7.26,13.28-8.51,20.74-1.53,9.2-1.68,19.24,10.6,18.1,14.15-1.31,39.87-32.02,48.71-43.26,16.65-21.19,32-45.11,45.59-68.39,2.93-5.01,6-10.04,8.41-15.34-8.41,6.06-17.26,11.48-25.64,17.59-28.62,20.87-53.32,46.5-79.16,70.56ZM849,196.45c-3.04,17.22-7.87,38.73-1.38,55.63,9.84,25.65,45.72,12.53,37.1-14.61-2.05-6.44-6.85-11.4-10.97-16.53l-24.74-24.49Z"/>
  <path class="cls-1" d="M1270.7,23.06c6.96-1.27,11.06,6.8,7.14,12.14l-72.48,58.52-2.77-3.27,63.98-65.01c1.15-1.02,2.57-2.09,4.12-2.37Z"/>
</svg>